PathFileType	4	(x/y/z)	S09_M20_T02
DataRate	CameraRate	NumFrames	NumMarkers	Units	OrigDataRate	OrigDataStartFrame	OrigNumFrames
240	240	9	51	mm	240	1	551
Frame#	Time	Sternum			R.Acromium			L.Acromium			Top.Head			R.ASIS			L.ASIS			R.PSIS			L.PSIS			R.Great.Tro			L.Great.Tro			R.Iliac.Crest			L.Iliac.Crest			V.Sacral			R.Thigh.Upper.Post			R.Thigh.Lower.Ant			R.Thigh.Lower.Post			R.Thigh.Upper.Ant			R.Knee.Lat			R.Knee.Med			R.Shank.Upper.Post			R.Shank.Lower.Ant			R.Shank.Lower.Post			R.Shank.Upper.Ant			R.Ankle.Lat			R.Ankle.Med			R.Heel.Upper			R.Heel.Med			R.Heel.Lat			R.Toe.Lat			R.Toe.Med			R.Toe.Tip			L.Thigh.Upper.Post			L.Thigh.Lower.Ant			L.Thigh.Lower.Post			L.Thigh.Upper.Ant			L.Knee.Lat			L.Knee.Med			L.Shank.Upper.Post			L.Shank.Lower.Ant			L.Shank.Lower.Post			L.Shank.Upper.Ant			L.Ankle.Lat			L.Ankle.Med			L.Heel.Upper			L.Heel.Med			L.Heel.Lat			L.Toe.Lat			L.Toe.Med			L.Toe.Tip			Cervical.Spine			Back			
		X1	Y1	Z1	X2	Y2	Z2	X3	Y3	Z3	X4	Y4	Z4	X5	Y5	Z5	X6	Y6	Z6	X7	Y7	Z7	X8	Y8	Z8	X9	Y9	Z9	X10	Y10	Z10	X11	Y11	Z11	X12	Y12	Z12	X13	Y13	Z13	X14	Y14	Z14	X15	Y15	Z15	X16	Y16	Z16	X17	Y17	Z17	X18	Y18	Z18	X19	Y19	Z19	X20	Y20	Z20	X21	Y21	Z21	X22	Y22	Z22	X23	Y23	Z23	X24	Y24	Z24	X25	Y25	Z25	X26	Y26	Z26	X27	Y27	Z27	X28	Y28	Z28	X29	Y29	Z29	X30	Y30	Z30	X31	Y31	Z31	X32	Y32	Z32	X33	Y33	Z33	X34	Y34	Z34	X35	Y35	Z35	X36	Y36	Z36	X37	Y37	Z37	X38	Y38	Z38	X39	Y39	Z39	X40	Y40	Z40	X41	Y41	Z41	X42	Y42	Z42	X43	Y43	Z43	X44	Y44	Z44	X45	Y45	Z45	X46	Y46	Z46	X47	Y47	Z47	X48	Y48	Z48	X49	Y49	Z49	X50	Y50	Z50	X51	Y51	Z51	

1	0	-928.38	1128.3	359.05	-1052.8	1382.9	499.01	-1061	1375.8	190.27	-991.19	1674.3	323.24	-985.95	965.65	480.26	-951.59	968.37	232.54	NaN	NaN	NaN	NaN	NaN	NaN	-1094	892.87	542.07	-1009.9	879.64	156.44	-1079.7	1050.2	513.13	-1065.2	1056.1	183.84	-1207.7	965.04	321.91	-1196.8	668.69	505.89	-1170.7	546.31	473.46	-1237.3	588.71	475.25	-1138.7	627.46	503.51	-1228.5	485.63	456.71	-1226.4	479.16	339.39	-1366.5	369.02	466.54	-1345.9	285.63	450.94	-1419.1	309.23	450.54	-1309.1	352.62	461.25	-1493	135.81	431.7	-1463.8	131.33	345.09	-1566.5	135.05	383.28	-1563.7	99.002	355.25	-1573.5	106.05	418.9	-1423.8	46.193	472.59	-1374.1	39.724	367.52	-1325.2	44.575	413.69	-957.3	620.16	196.01	-836.81	572.96	198.17	-900.64	548.92	216.17	NaN	NaN	NaN	-811.27	502.68	208.54	-807.34	515.25	344.86	-791.07	363.68	193.85	-691.2	315.45	203.01	-754.61	295.71	198.5	-729.16	383.57	199.28	-638.28	126.89	217.11	-614.79	135.77	307.51	-662.65	48.281	275.37	-633.4	40.339	303.81	-645.21	26.765	244.65	-519.54	137.82	173.88	-486.03	171.86	277.87	-468.7	216.05	214.99	-1136.7	1431.4	353.17	-1193.5	1165	342.84
2	0.0041667	-922.1	1127.7	358.41	-1047.2	1382	498.37	-1055.3	1374.8	189.58	-986.01	1673.4	322.74	-979.79	964.56	479.69	-944.91	967.6	232.06	NaN	NaN	NaN	NaN	NaN	NaN	-1088.2	891.95	541.32	-1002.8	878.97	155.82	-1073.5	1049.2	512.41	-1058.6	1055.3	183.09	-1200.8	964.12	320.91	-1191.7	668.3	505.26	-1166.1	545.76	473.07	-1232.5	588.45	474.64	-1134.1	626.85	503.02	-1224.1	485.61	456.81	-1222	478.62	338.98	-1362.9	369.71	466.33	-1342.8	286.42	450.8	-1416.1	310.43	450.39	-1305.8	352.92	461.15	-1491.4	137.42	431.83	-1462.2	132.63	345.32	-1564.9	137.51	383.37	-1562.4	101.55	355.21	-1572.2	108.33	418.92	-1423.4	46.564	472.6	-1373.7	39.818	367.64	-1325	44.541	413.75	-950.78	619.55	195.66	-830.25	572.15	198.32	-894.1	548.17	216.1	NaN	NaN	NaN	-804.95	501.68	208.67	-800.97	514.64	344.66	-785.84	362.68	193.8	-686.59	313.45	203.34	-750.13	294.32	198.52	-723.84	381.9	199.57	-635.31	124.72	217.22	-612.28	133.08	307.83	-661.07	47.886	275.11	-632.18	39.461	303.62	-644.07	26.002	244.52	-516.74	134.71	174.38	-483.27	168.3	278.57	-465.46	212.44	215.83	-1130.9	1430.1	352.47	-1186.9	1163.5	342.19
3	0.0083333	-915.53	1127	357.73	-1041.4	1381.1	497.7	-1049.5	1373.9	188.85	-980.63	1672.5	322.21	-973.35	963.43	479.1	-937.95	966.82	231.55	-1167.3	1003.9	365.44	NaN	NaN	NaN	-1082.2	890.98	540.53	-995.45	878.28	155.17	-1067.1	1048.1	511.65	-1051.7	1054.4	182.31	-1193.6	963.17	319.85	-1186.3	667.89	504.6	-1161.3	545.17	472.67	-1227.5	588.17	474.01	-1129.3	626.18	502.49	-1219.4	485.56	456.89	-1217.4	478.05	338.55	-1359.1	370.46	466.09	-1339.7	287.22	450.67	-1412.8	311.7	450.24	-1302.3	353.23	461.06	-1489.7	139.12	431.97	-1460.4	134.01	345.56	-1563.2	140.12	383.46	-1560.9	104.25	355.18	-1570.9	110.75	418.94	-1423	46.961	472.62	-1373.3	39.914	367.76	-1324.8	44.504	413.81	-944.02	618.92	195.28	-823.46	571.31	198.46	-887.33	547.4	216.01	NaN	NaN	NaN	-798.4	500.65	208.77	-794.37	514	344.44	-780.39	361.67	193.75	-681.76	311.42	203.68	-745.43	292.92	198.55	-718.28	380.2	199.87	-632.18	122.55	217.32	-609.62	130.35	308.15	-659.38	47.571	274.84	-630.9	38.619	303.43	-642.88	25.294	244.39	-513.8	131.45	174.92	-480.35	164.56	279.32	-461.99	208.62	216.69	-1124.9	1428.8	351.74	-1180	1162.1	341.49
4	0.0125	-908.72	1126.3	357.02	-1035.3	1380.2	496.99	-1043.4	1372.9	188.1	-975.06	1671.6	321.68	-966.67	962.27	478.48	-930.76	966.03	231.03	-1162.3	1002.6	364.69	NaN	NaN	NaN	-1075.9	889.99	539.72	-987.77	877.6	154.48	-1060.5	1047	510.87	-1044.6	1053.6	181.5	-1186.2	962.2	318.75	-1180.7	667.45	503.9	-1156.2	544.56	472.26	-1222.2	587.87	473.34	-1124.2	625.47	501.92	-1214.6	485.48	456.93	-1212.5	477.46	338.11	-1355.1	371.26	465.83	-1336.5	288.02	450.57	-1409.4	313.03	450.08	-1298.7	353.54	460.98	-1488	140.9	432.11	-1458.5	135.46	345.81	-1561.4	142.86	383.55	-1559.4	107.08	355.14	-1569.4	113.32	418.95	-1422.5	47.385	472.63	-1372.9	40.014	367.89	-1324.6	44.465	413.87	-937.04	618.29	194.87	-816.48	570.43	198.59	-880.38	546.61	215.88	NaN	NaN	NaN	-791.67	499.6	208.84	-787.61	513.31	344.2	-774.74	360.66	193.69	-676.74	309.4	204.01	-740.53	291.54	198.57	-712.54	378.51	200.16	-628.91	120.4	217.42	-606.82	127.62	308.48	-657.61	47.356	274.56	-629.56	37.836	303.24	-641.65	24.664	244.25	-510.72	128.06	175.49	-477.28	160.65	280.1	-458.3	204.61	217.57	-1118.7	1427.5	350.97	-1172.9	1160.5	340.77
5	0.016667	-901.7	1125.6	356.27	-1029.1	1379.3	496.27	-1037.2	1371.9	187.31	-969.35	1670.7	321.12	-959.77	961.09	477.84	-923.38	965.23	230.5	-1157	1001.2	363.9	NaN	NaN	NaN	-1069.3	888.97	538.89	-979.86	876.94	153.77	-1053.6	1045.9	510.07	-1037.2	1052.7	180.66	-1178.7	961.23	317.61	-1174.9	666.99	503.17	-1150.9	543.93	471.83	-1216.7	587.55	472.64	-1118.7	624.7	501.31	-1209.5	485.36	456.94	-1207.3	476.83	337.65	-1351	372.11	465.54	-1333.2	288.83	450.49	-1405.8	314.4	449.92	-1294.9	353.84	460.91	-1486.1	142.77	432.26	-1456.5	136.98	346.08	-1559.4	145.74	383.65	-1557.7	110.06	355.1	-1567.7	116.03	418.96	-1422	47.838	472.64	-1372.4	40.118	368.02	-1324.4	44.423	413.93	-929.91	617.68	194.42	-809.35	569.54	198.7	-873.28	545.82	215.72	NaN	NaN	NaN	-784.81	498.55	208.86	-780.73	512.6	343.93	-768.92	359.67	193.63	-671.55	307.41	204.34	-735.46	290.18	198.58	-706.63	376.85	200.44	-625.51	118.3	217.51	-603.88	124.92	308.79	-655.75	47.258	274.27	-628.17	37.13	303.05	-640.39	24.129	244.1	-507.54	124.58	176.11	-474.07	156.6	280.91	-454.4	200.41	218.47	-1112.4	1426.2	350.19	-1165.6	1159	340.01
6	0.020833	-894.51	1124.9	355.49	-1022.8	1378.3	495.52	-1030.8	1371	186.49	-963.52	1669.8	320.56	-952.69	959.9	477.18	-915.85	964.44	229.95	-1151.3	999.9	363.06	NaN	NaN	NaN	-1062.6	887.93	538.04	-971.74	876.3	153.02	-1046.5	1044.7	509.25	-1029.7	1052	179.8	-1170.9	960.26	316.44	-1168.9	666.51	502.41	-1145.4	543.27	471.4	-1211	587.19	471.93	-1113	623.89	500.66	-1204.2	485.2	456.9	-1201.9	476.16	337.2	-1346.8	373.01	465.23	-1329.8	289.64	450.43	-1402.1	315.82	449.76	-1291	354.14	460.86	-1484.1	144.71	432.42	-1454.3	138.56	346.36	-1557.4	148.75	383.74	-1556	113.17	355.05	-1566	118.87	418.95	-1421.4	48.321	472.65	-1371.9	40.225	368.15	-1324.2	44.378	413.99	-922.63	617.07	193.94	-802.11	568.64	198.79	-866.09	545.04	215.52	NaN	NaN	NaN	-777.86	497.51	208.83	-773.78	511.87	343.64	-762.95	358.73	193.56	-666.21	305.48	204.67	-730.23	288.87	198.59	-700.59	375.24	200.71	-622	116.28	217.59	-600.82	122.28	309.1	-653.81	47.29	273.97	-626.75	36.517	302.86	-639.09	23.706	243.95	-504.27	121	176.76	-470.74	152.42	281.75	-450.31	196.05	219.38	-1105.9	1424.8	349.38	-1158.1	1157.4	339.23
7	0.025	-887.17	1124.3	354.68	-1016.4	1377.4	494.75	-1024.4	1370	185.66	-957.61	1669	320	-945.47	958.72	476.51	-908.21	963.67	229.38	-1145.4	998.58	362.18	NaN	NaN	NaN	-1055.8	886.88	537.18	-963.46	875.71	152.25	-1039.4	1043.6	508.43	-1022	1051.2	178.93	-1163.1	959.3	315.25	-1162.7	666	501.63	-1139.6	542.58	470.96	-1205.1	586.81	471.19	-1107	623.05	500	-1198.7	485	456.83	-1196.3	475.47	336.75	-1342.4	373.96	464.89	-1326.4	290.45	450.4	-1398.1	317.27	449.61	-1287	354.42	460.82	-1481.9	146.73	432.59	-1452	140.19	346.66	-1555.2	151.88	383.84	-1554.1	116.42	355	-1564.1	121.85	418.94	-1420.9	48.838	472.65	-1371.4	40.338	368.28	-1323.9	44.329	414.04	-915.25	616.5	193.43	-794.79	567.75	198.85	-858.82	544.27	215.27	NaN	NaN	NaN	-770.83	496.51	208.75	-766.78	511.14	343.33	-756.87	357.84	193.48	-660.75	303.63	204.98	-724.86	287.64	198.58	-694.44	373.7	200.96	-618.41	114.37	217.65	-597.67	119.73	309.38	-651.81	47.46	273.66	-625.29	36.01	302.67	-637.78	23.404	243.79	-500.92	117.36	177.45	-467.31	148.14	282.62	-446.03	191.53	220.29	-1099.4	1423.5	348.55	-1150.5	1155.9	338.42
8	0.029167	-879.71	1123.7	353.84	-1009.9	1376.4	493.96	-1017.8	1369	184.8	-951.62	1668.2	319.43	-938.12	957.55	475.82	-900.5	962.92	228.8	-1139.2	997.29	361.28	NaN	NaN	NaN	-1048.8	885.81	536.3	-955.06	875.17	151.45	-1032	1042.4	507.59	-1014.1	1050.5	178.04	-1155.2	958.36	314.05	-1156.3	665.47	500.82	-1133.7	541.88	470.51	-1199	586.4	470.43	-1100.8	622.17	499.31	-1193.1	484.74	456.72	-1190.5	474.74	336.3	-1338	374.96	464.52	-1322.9	291.24	450.39	-1394	318.76	449.45	-1282.8	354.7	460.81	-1479.7	148.82	432.76	-1449.6	141.88	346.98	-1552.9	155.14	383.93	-1552	119.79	354.94	-1562	124.98	418.91	-1420.3	49.392	472.64	-1370.8	40.456	368.42	-1323.7	44.275	414.09	-907.77	615.95	192.88	-787.43	566.88	198.87	-851.51	543.55	214.97	NaN	NaN	NaN	-763.77	495.55	208.61	-759.79	510.41	342.99	-750.68	357.03	193.38	-655.18	301.89	205.28	-719.38	286.5	198.56	-688.19	372.26	201.2	-614.76	112.58	217.7	-594.44	117.28	309.64	-649.75	47.769	273.34	-623.83	35.62	302.49	-636.45	23.23	243.62	-497.51	113.67	178.16	-463.8	143.78	283.5	-441.6	186.88	221.21	-1092.7	1422.3	347.7	-1142.9	1154.3	337.6
9	0.033333	-872.17	1123.1	352.98	-1003.4	1375.5	493.17	-1011.2	1368.1	183.93	-945.59	1667.4	318.86	-930.68	956.39	475.12	-892.76	962.21	228.21	-1132.7	996.05	360.35	NaN	NaN	NaN	-1041.6	884.74	535.41	-946.56	874.71	150.61	-1024.6	1041.3	506.75	-1006.3	1049.9	177.15	-1147.3	957.45	312.84	-1149.8	664.92	499.99	-1127.6	541.15	470.07	-1192.7	585.95	469.66	-1094.3	621.28	498.61	-1187.2	484.43	456.57	-1184.4	473.96	335.87	-1333.3	376.01	464.12	-1319.3	292.02	450.4	-1389.7	320.28	449.3	-1278.6	354.95	460.82	-1477.3	150.97	432.94	-1447	143.62	347.31	-1550.4	158.51	384.01	-1549.8	123.29	354.86	-1559.8	128.24	418.86	-1419.7	49.986	472.63	-1370.3	40.582	368.56	-1323.5	44.216	414.14	-900.2	615.45	192.3	-780.04	566.07	198.86	-844.18	542.88	214.61	-828.21	635.24	173.42	-756.67	494.67	208.41	-752.81	509.7	342.64	-744.41	356.32	193.26	-649.53	300.27	205.55	-713.79	285.48	198.51	-681.87	370.94	201.41	-611.06	110.92	217.73	-591.15	114.97	309.87	-647.67	48.214	273	-622.36	35.352	302.3	-635.13	23.186	243.44	-494.07	109.95	178.9	-460.24	139.36	284.4	-437.03	182.1	222.12	-1086.1	1421	346.84	-1135.2	1152.8	336.75
